HIERARCHY
ROOT Hips
{
	OFFSET 0.00000 0.00000 0.00000
	CHANNELS 6 Xposition Yposition Zposition Zrotation Yrotation Xrotation 
	JOINT LHipJoint
	{
		OFFSET 0 0 0
		CHANNELS 3 Zrotation Yrotation Xrotation
		JOINT LeftUpLeg
		{
			OFFSET 1.54859 -1.61379 0.86856
			CHANNELS 3 Zrotation Yrotation Xrotation
			JOINT LeftLeg
			{
				OFFSET 2.25087 -6.18423 0.00000
				CHANNELS 3 Zrotation Yrotation Xrotation
				JOINT LeftFoot
				{
					OFFSET 2.40328 -6.60297 0.00000
					CHANNELS 3 Zrotation Yrotation Xrotation
					JOINT LeftToeBase
					{
						OFFSET 0.17435 -0.47901 2.02453
						CHANNELS 3 Zrotation Yrotation Xrotation
						End Site
						{
							OFFSET 0.00000 -0.00000 1.04844
						}
					}
				}
			}
		}
	}
	JOINT RHipJoint
	{
		OFFSET 0 0 0
		CHANNELS 3 Zrotation Yrotation Xrotation
		JOINT RightUpLeg
		{
			OFFSET -1.54669 -1.61379 0.86856
			CHANNELS 3 Zrotation Yrotation Xrotation
			JOINT RightLeg
			{
				OFFSET -2.28132 -6.26789 0.00000
				CHANNELS 3 Zrotation Yrotation Xrotation
				JOINT RightFoot
				{
					OFFSET -2.51636 -6.91365 0.00000
					CHANNELS 3 Zrotation Yrotation Xrotation
					JOINT RightToeBase
					{
						OFFSET -0.15124 -0.41552 2.21090
						CHANNELS 3 Zrotation Yrotation Xrotation
						End Site
						{
							OFFSET -0.00000 -0.00000 1.13399
						}
					}
				}
			}
		}
	}
	JOINT LowerBack
	{
		OFFSET 0 0 0
		CHANNELS 3 Zrotation Yrotation Xrotation
		JOINT Spine
		{
			OFFSET -0.04287 2.26161 -0.25690
			CHANNELS 3 Zrotation Yrotation Xrotation
			JOINT Spine1
			{
				OFFSET 0.02248 2.28395 -0.10140
				CHANNELS 3 Zrotation Yrotation Xrotation
				JOINT Neck
				{
					OFFSET 0 0 0
					CHANNELS 3 Zrotation Yrotation Xrotation
					JOINT Neck1
					{
						OFFSET -0.11644 1.38496 0.11345
						CHANNELS 3 Zrotation Yrotation Xrotation
						JOINT Head
						{
							OFFSET 0.29383 1.36600 0.06642
							CHANNELS 3 Zrotation Yrotation Xrotation
							End Site
							{
								OFFSET 0.11075 1.41395 -0.00294
							}
						}
					}
				}
				JOINT LeftShoulder
				{
					OFFSET 0 0 0
					CHANNELS 3 Zrotation Yrotation Xrotation
					JOINT LeftArm
					{
						OFFSET 3.51628 0.59542 -0.30346
						CHANNELS 3 Zrotation Yrotation Xrotation
						JOINT LeftForeArm
						{
							OFFSET 4.76405 -0.00000 0.00000
							CHANNELS 3 Zrotation Yrotation Xrotation
							JOINT LeftHand
							{
								OFFSET 3.13759 -0.00000 -0.00000
								CHANNELS 3 Zrotation Yrotation Xrotation
								JOINT LeftFingerBase
								{
									OFFSET 0 0 0
									CHANNELS 3 Zrotation Yrotation Xrotation
									JOINT LeftHandIndex1
									{
										OFFSET 0.73226 -0.00000 -0.00000
										CHANNELS 3 Zrotation Yrotation Xrotation
										End Site
										{
											OFFSET 0.59037 -0.00000 -0.00000
										}
									}
								}
								JOINT LThumb
								{
									OFFSET 0 0 0
									CHANNELS 3 Zrotation Yrotation Xrotation
									End Site
									{
										OFFSET 0.59938 -0.00000 0.59938
									}
								}
							}
						}
					}
				}
				JOINT RightShoulder
				{
					OFFSET 0 0 0
					CHANNELS 3 Zrotation Yrotation Xrotation
					JOINT RightArm
					{
						OFFSET -3.30990 0.84213 -0.36430
						CHANNELS 3 Zrotation Yrotation Xrotation
						JOINT RightForeArm
						{
							OFFSET -5.10161 -0.00000 -0.00000
							CHANNELS 3 Zrotation Yrotation Xrotation
							JOINT RightHand
							{
								OFFSET -3.23267 -0.00000 -0.00000
								CHANNELS 3 Zrotation Yrotation Xrotation
								JOINT RightFingerBase
								{
									OFFSET 0 0 0
									CHANNELS 3 Zrotation Yrotation Xrotation
									JOINT RightHandIndex1
									{
										OFFSET -0.70200 -0.00000 -0.00000
										CHANNELS 3 Zrotation Yrotation Xrotation
										End Site
										{
											OFFSET -0.56597 -0.00000 -0.00000
										}
									}
								}
								JOINT RThumb
								{
									OFFSET 0 0 0
									CHANNELS 3 Zrotation Yrotation Xrotation
									End Site
									{
										OFFSET -0.57461 -0.00000 0.57461
									}
								}
							}
						}
					}
				}
			}
		}
	}
}
MOTION
Frames: 12
Frame Time: 0.037037
0.00 0.00 0.00 0 0 0 0 0 0 -21 0 0 0 0 0 0 0 0 0 0 0 0 0 0 21 0 0 0 0 0 0 0 0 0 0 0 0 0 0 0 0 0 0 0 0 0 0 -16 0 0 21 0 0 11 0 0 0 -8 0 0 0 0 0 0 0 0 0 0 0 0 0 0 0 0 0 0 0 0 8 0 0 0 0 0 0 0 0 0 0 0 0 0 0 0 0 0
0.00 0.00 0.00 164.2700 65.6038 171.8880 0.0000 0.0000 0.0000 -16.7243 -3.1414 -16.2811 1.9020 8.6589 24.7339 0.1388 -7.5040 -7.9175 0.9183 -6.1057 -17.0913 0.0000 0.0000 0.0000 8.3320 -6.2792 -16.6522 -4.6998 -13.0375 39.5092 -2.7129 -11.4083 -36.7413 -0.1876 -2.7896 7.6936 -10.4375 0.8751 10.7318 0.3272 0.6761 6.7176 6.1578 0.1925 1.0137 -12.3293 -3.5721 -14.5156 18.0489 -0.1582 -15.9830 7.7963 0.9211 -2.1234 0.0000 -0.0000 0.0000 -48.7951 -26.2682 70.6154 131.3175 -52.4501 -94.8742 -0.0000 0.0000 -60.6151 35.9931 35.8204 23.0303 -7.1250 0.0000 -0.0000 4.1174 71.6777 2.6156 0.0000 -0.0000 0.0000 59.1434 10.4547 74.6853 -140.7815 47.6000 -102.1400 0.0000 -0.0000 -40.2209 -64.4644 36.4661 -51.2076 7.1250 -0.0000 -0.0000 -15.3317 28.1588 -21.2420
0.00 0.00 0.00 160.4770 67.3532 163.7220 0.0000 0.0000 0.0000 -18.2739 -1.1189 -9.8234 1.7950 8.4253 24.0136 0.2833 -6.1935 -9.7808 0.3221 -3.6479 -10.0880 0.0000 0.0000 0.0000 5.8184 -7.0319 -11.4199 -4.7001 -13.0379 39.5103 -3.0408 -8.6364 -36.7808 -0.2114 -2.9605 8.1687 -10.0802 3.8353 14.3880 -1.7232 4.2737 6.8517 3.1654 2.1897 -1.2743 -16.7755 -6.8070 -13.1847 26.6033 -4.5418 -12.0657 11.2919 -1.1870 0.1477 -0.0000 0.0000 0.0000 -43.4149 -44.2140 48.4312 113.9926 -57.7091 -80.6184 -0.0000 0.0000 -47.4863 26.5482 30.6580 14.2931 -7.1250 0.0000 -0.0000 -6.0391 63.4117 -2.7025 -0.0000 0.0000 0.0000 61.5375 34.7976 63.7563 -130.1441 52.9372 -93.9409 0.0000 -0.0000 -28.6489 -68.5696 36.1104 -56.3361 7.1250 -0.0000 -0.0000 -17.5756 31.2838 -24.8326
0.00 0.00 0.00 159.7820 67.3144 164.5590 0.0000 0.0000 0.0000 -18.6588 -1.1945 -11.8577 1.8801 8.6117 24.5879 0.2824 -6.7055 -9.8882 0.5875 -4.9076 -13.6452 0.0000 0.0000 0.0000 5.3854 -8.2683 -13.6249 -4.7590 -13.1071 39.7707 -2.9224 -7.6459 -35.6355 -0.2669 -3.3232 9.1798 -10.0376 4.1910 13.0007 -2.2619 4.7905 6.1046 2.5476 2.4499 -1.3563 -17.8271 -7.4766 -12.3011 28.0701 -5.7351 -11.0452 11.9216 -1.8101 0.7005 0.0000 -0.0000 0.0000 -43.7387 -52.9237 38.4460 93.0181 -59.9656 -62.6135 -0.0000 0.0000 -44.6090 20.6856 23.6190 8.6024 -7.1250 0.0000 -0.0000 -9.1120 54.8008 -2.2072 0.0000 -0.0000 0.0000 63.5692 46.2382 58.9366 -115.7652 57.3367 -82.1138 0.0000 -0.0000 -23.1872 -71.5477 40.8545 -62.9744 7.1250 -0.0000 -0.0000 -16.6388 38.0365 -23.8183
0.00 0.00 0.00 159.6500 66.9946 164.0730 0.0000 0.0000 0.0000 -18.6705 -0.6064 -11.7854 1.9215 8.7006 24.8632 0.2484 -7.1378 -9.5090 0.5535 -4.7657 -13.2416 0.0000 0.0000 0.0000 4.8719 -10.1708 -13.8668 -4.8837 -13.2516 40.3178 -2.9731 -5.9918 -35.0720 -0.2971 -3.5047 9.6872 -10.3944 4.4326 13.4750 -2.2542 4.9968 5.9925 2.6753 2.5678 -1.7770 -18.4891 -7.8159 -11.6589 28.4143 -6.4274 -10.4905 12.1064 -2.1953 0.9613 -0.0000 0.0000 0.0000 -44.3807 -61.8545 27.3562 68.9273 -58.2538 -41.8575 -0.0000 0.0000 -44.2215 14.4724 18.4967 4.6811 -7.1250 0.0000 -0.0000 -13.2780 48.5797 -1.1918 -0.0000 0.0000 0.0000 67.5741 58.0246 57.0452 -95.1860 59.8981 -64.4896 0.0000 -0.0000 -21.6406 -67.8029 39.7181 -57.4402 7.1250 -0.0000 -0.0000 -15.4214 33.9293 -21.8273
0.00 0.00 0.00 157.7640 68.6503 163.2150 0.0000 0.0000 0.0000 -18.6434 0.3658 -12.5370 1.9325 8.7240 24.9356 0.3204 -6.5771 -10.4018 0.5070 -4.5642 -12.6697 0.0000 0.0000 0.0000 4.0390 -12.1688 -16.7532 -5.2307 -13.6390 41.8102 -2.8128 -2.6629 -32.7411 -0.2549 -3.2487 8.9719 -10.8820 4.7909 12.2994 -2.7263 5.4983 5.5918 2.4315 2.8062 -1.6261 -19.0908 -8.2991 -13.0375 29.5023 -7.3968 -8.0066 12.4805 -2.5136 2.2309 0.0000 -0.0000 0.0000 -36.5063 -75.5948 2.3186 41.7495 -49.0729 -19.7511 -0.0000 0.0000 -44.1967 7.3649 19.1006 2.4219 -7.1250 0.0000 -0.0000 -20.0934 48.1566 -1.6261 0.0000 -0.0000 0.0000 90.7850 73.3970 70.6873 -60.6774 56.4878 -34.9053 0.0000 -0.0000 -25.4704 -54.9248 37.0814 -40.6527 7.1250 -0.0000 -0.0000 -10.4115 22.0639 -13.7293
0.00 0.00 0.00 156.8770 68.3284 162.8150 0.0000 0.0000 0.0000 -18.9679 0.8112 -13.5197 2.0043 8.8750 25.4051 0.3124 -6.5972 -10.2937 0.9062 -6.0662 -16.9767 0.0000 0.0000 0.0000 3.4921 -13.7216 -18.1502 -5.4995 -13.9251 42.9383 -2.8448 -0.7637 -32.2355 -0.3419 -3.7572 10.3944 -11.6936 4.4712 13.1675 -3.2162 4.7868 5.0044 2.3810 2.5103 -2.6435 -19.0962 -8.4512 -14.5670 30.5752 -7.8032 -6.0530 12.8409 -2.5178 3.2326 0.0000 0.0000 0.0000 -11.1191 -81.8239 -33.1211 31.9746 -42.5269 -12.7237 -0.0000 0.0000 -40.3659 6.1712 24.3794 2.5555 -7.1250 0.0000 -0.0000 -23.8530 52.8621 -4.8347 0.0000 0.0000 0.0000 137.4555 76.9154 109.4849 -42.3674 49.4116 -20.2191 0.0000 -0.0000 -29.4628 -48.1721 35.2088 -32.7902 7.1250 -0.0000 -0.0000 -7.7597 16.2711 -9.6973
0.00 0.00 0.00 156.5370 68.3721 163.0340 0.0000 0.0000 0.0000 -18.9530 0.7353 -14.1852 2.0447 8.9586 25.6659 0.3018 -6.8217 -10.1967 0.7314 -5.4640 -15.2369 0.0000 0.0000 0.0000 3.4407 -14.2439 -19.2197 -5.6460 -14.0763 43.5439 -2.8585 0.0897 -32.0408 -0.3747 -3.9314 10.8839 -12.1580 4.4874 13.2325 -3.3798 4.7138 4.8042 2.4578 2.4896 -2.8987 -18.9586 -8.7925 -15.6780 31.0429 -8.2552 -5.4887 12.9344 -2.6080 3.7370 -0.0000 -0.0000 0.0000 16.2540 -83.2911 -64.7208 28.3540 -39.4401 -10.3478 -0.0000 0.0000 -36.8444 6.6521 26.2649 2.9544 -7.1250 0.0000 -0.0000 -24.5497 54.6617 -6.1023 -0.0000 -0.0000 0.0000 160.3693 76.0538 128.6697 -35.6595 45.2773 -15.2801 0.0000 -0.0000 -31.3571 -46.0833 36.0354 -31.4233 7.1250 -0.0000 -0.0000 -6.4296 16.1347 -8.0052
0.00 0.00 0.00 156.4520 68.4608 162.9920 0.0000 0.0000 0.0000 -18.5816 1.2666 -14.5277 2.1226 9.1169 26.1616 0.2852 -7.6064 -10.1795 0.6601 -5.1963 -14.4692 0.0000 0.0000 0.0000 3.4323 -15.5460 -20.1704 -5.9461 -14.3759 44.7652 -2.9455 1.8658 -32.0380 -0.4541 -4.3229 11.9868 -13.1326 4.6779 14.4614 -3.4618 4.6071 4.5351 2.8119 2.4941 -3.8888 -18.8005 -9.2885 -16.2242 31.9449 -8.7826 -5.9077 13.1868 -2.7779 3.9416 0.0000 -0.0000 0.0000 56.1759 -80.6722 -109.5443 22.0229 -33.0029 -6.5983 -0.0000 0.0000 -31.4266 7.7740 27.1997 3.5708 -7.1250 0.0000 -0.0000 -24.0728 55.7248 -6.6105 0.0000 -0.0000 0.0000 -173.9969 71.8051 148.0851 -26.0894 37.2968 -8.9418 0.0000 -0.0000 -30.1737 -41.4569 35.4232 -27.1134 7.1250 -0.0000 -0.0000 -4.2682 13.4173 -5.1546
0.00 0.00 0.00 156.6930 57.9550 176.4870 0.0000 0.0000 0.0000 -18.7234 2.1737 -34.1819 4.0431 12.2175 36.5057 -0.3348 -13.2460 -4.1879 3.1298 -10.9023 -31.9510 0.0000 0.0000 0.0000 0.9525 -25.5204 -24.8434 -7.4232 -15.6782 50.4575 -2.4987 3.7098 -29.0229 -2.2680 -9.4032 27.0650 -22.1343 2.1150 8.0122 -4.8486 0.9937 -0.0674 6.8664 1.1617 -4.8769 -20.5344 -17.1543 -1.9551 38.4634 -22.1857 -9.8270 13.8491 -10.8259 5.2214 0.0000 0.0000 0.0000 -5.1936 -84.9089 -46.8673 34.8895 -44.7331 -14.7355 -0.0000 0.0000 -42.1505 6.2912 30.7383 3.2251 -7.1250 0.0000 -0.0000 -28.2119 58.5669 -9.8583 0.0000 0.0000 0.0000 165.4630 77.9595 128.5823 -41.4596 48.9113 -19.5323 0.0000 -0.0000 -24.8340 -30.3727 29.4439 -16.0711 7.1250 -0.0000 -0.0000 0.3017 3.2156 0.3181
0.00 0.00 0.00 156.9330 56.1427 178.3190 0.0000 0.0000 0.0000 -18.2659 1.0437 -37.8925 4.8821 13.2498 40.3108 -0.2780 -12.3877 -4.2070 3.8288 -11.9291 -35.4815 0.0000 0.0000 0.0000 -0.1532 -25.8714 -23.8771 -7.7411 -15.9255 51.6246 -2.3011 3.0763 -27.9288 -2.2550 -9.3782 26.9858 -23.4026 1.6930 7.2003 -4.3309 0.4940 -0.4763 8.1769 0.9667 -4.7583 -22.4521 -17.4364 1.2528 39.9033 -23.2662 -10.1275 14.7539 -11.7263 5.4621 0.0000 0.0000 0.0000 -65.7206 -81.8643 10.8640 45.4157 -50.9705 -22.5612 -0.0000 0.0000 -41.4017 7.8817 31.7185 4.1628 -7.1250 0.0000 -0.0000 -27.4609 59.7825 -10.3801 0.0000 0.0000 0.0000 136.4465 75.3530 100.3206 -54.7626 54.7446 -30.0221 0.0000 -0.0000 -23.7573 -30.9125 29.9508 -16.6439 7.1250 -0.0000 -0.0000 0.0916 3.9058 0.0977
0.00 0.00 0.00 157.8370 53.8534 181.5890 0.0000 0.0000 0.0000 -16.5520 -1.4498 -42.5568 5.8631 14.2944 44.4299 -0.0391 -8.2925 -4.9852 3.1290 -10.9010 -31.9466 0.0000 0.0000 0.0000 -1.8290 -26.4282 -22.6220 -8.1876 -16.2555 53.2357 -1.9545 1.6927 -25.9801 -2.2873 -9.4405 27.1834 -23.8119 1.6302 6.1112 -4.0947 0.6470 -0.8125 8.6472 1.0575 -4.5755 -23.2412 -19.1298 4.3048 41.8055 -26.1730 -11.4667 15.0047 -13.5755 6.0219 0.0000 0.0000 0.0000 -90.1910 -73.1380 36.0688 59.3465 -56.1333 -33.7979 -0.0000 0.0000 -39.0590 9.7080 27.6199 4.5348 -7.1250 0.0000 -0.0000 -22.4423 56.4956 -6.5551 0.0000 0.0000 0.0000 110.3587 65.7693 74.4636 -79.5335 59.5820 -50.9484 0.0000 -0.0000 -18.7228 -34.4330 32.1996 -20.0680 7.1250 -0.0000 -0.0000 -1.3915 7.3722 -1.5590
